<?xml version="1.0" encoding="UTF-8" standalone="no" ?>
<!DOCTYPE svg PUBLIC "-//W3C//DTD SVG 1.1//EN" "http://www.w3.org/Graphics/SVG/1.1/DTD/svg11.dtd">
<svg xmlns="http://www.w3.org/2000/svg" xmlns:xlink="http://www.w3.org/1999/xlink" version="1.1" width="1080" height="1080" viewBox="0 0 1080 1080" xml:space="preserve">
<desc>Created with Fabric.js 5.2.4</desc>
<defs>
</defs>
<g transform="matrix(1 0 0 1 540 540)" id="b38c09a7-b5f9-47cd-a20c-e504e7d214df"  >
<rect style="stroke: none; stroke-width: 1; stroke-dasharray: none; stroke-linecap: butt; stroke-dashoffset: 0; stroke-linejoin: miter; stroke-miterlimit: 4; fill: rgb(255,255,255); fill-rule: nonzero; opacity: 1; visibility: hidden;" vector-effect="non-scaling-stroke"  x="-540" y="-540" rx="0" ry="0" width="1080" height="1080" />
</g>
<g transform="matrix(1 0 0 1 540 540)" id="f054abb2-19de-498c-829d-834e5aa053f3"  >
</g>
<g transform="matrix(4 0 0 4 318.42 540)"  >
<path style="stroke: none; stroke-width: 1; stroke-dasharray: none; stroke-linecap: butt; stroke-dashoffset: 0; stroke-linejoin: miter; stroke-miterlimit: 4; fill: rgb(0,0,0); fill-rule: nonzero; opacity: 1;" vector-effect="non-scaling-stroke"  transform=" translate(-840.6, -798)" d="M 885.208 749.739 L 885.208 708.791 C 836.019 708.791 796 748.81 796 798 L 796 887.2090000000001 L 885.208 887.2090000000001 L 885.208 798 L 836.948 798 C 836.948 771.39 858.598 749.739 885.208 749.739 z" stroke-linecap="round" />
</g>
<g transform="matrix(-4 0 0 -4 761.58 540)"  >
<path style="stroke: none; stroke-width: 1; stroke-dasharray: none; stroke-linecap: butt; stroke-dashoffset: 0; stroke-linejoin: miter; stroke-miterlimit: 4; fill: rgb(0,0,0); fill-rule: nonzero; opacity: 1;" vector-effect="non-scaling-stroke"  transform=" translate(-951.4, -798)" d="M 996 749.739 L 996 708.791 C 946.81 708.791 906.7909999999999 748.8100000000001 906.7909999999999 798 L 906.7909999999999 887.2090000000001 L 996 887.2090000000001 L 996 798 L 947.74 798 C 947.74 771.39 969.39 749.739 996 749.739 z" stroke-linecap="round" />
</g>
</svg>